<svg width="786" height="786" viewBox="0 0 786 786" fill="none" xmlns="http://www.w3.org/2000/svg">
<path d="M786 393C786 610.048 610.048 786 393 786C175.952 786 0 610.048 0 393C0 175.952 175.952 0 393 0C610.048 0 786 175.952 786 393Z" fill="#1F2226"/>
<path fill-rule="evenodd" clip-rule="evenodd" d="M513.787 220.891C519.113 214.37 527.748 214.37 533.075 220.891L664.005 381.193C669.332 387.714 669.332 398.286 664.005 404.807C658.679 411.328 650.044 411.328 644.717 404.807L523.431 256.313L271.213 565.109C265.887 571.63 257.252 571.63 251.925 565.109L120.995 404.807C115.668 398.286 115.668 387.714 120.995 381.193C126.321 374.672 134.956 374.672 140.283 381.193L261.569 529.687L513.787 220.891Z" fill="white"/>
<path fill-rule="evenodd" clip-rule="evenodd" d="M124.081 224.669C127.703 220.235 133.575 220.235 137.197 224.669L261.569 376.942L385.942 224.669C389.564 220.235 395.436 220.235 399.058 224.669C402.68 229.103 402.68 236.293 399.058 240.727L268.127 401.029C264.505 405.463 258.633 405.463 255.011 401.029L124.081 240.727C120.459 236.293 120.459 229.103 124.081 224.669Z" fill="white"/>
<path fill-rule="evenodd" clip-rule="evenodd" d="M660.919 561.331C657.297 565.765 651.425 565.765 647.803 561.331L523.431 409.058L399.058 561.331C395.436 565.765 389.564 565.765 385.942 561.331C382.32 556.897 382.32 549.707 385.942 545.273L516.873 384.971C520.495 380.537 526.367 380.537 529.989 384.971L660.919 545.273C664.541 549.707 664.541 556.897 660.919 561.331Z" fill="white"/>
</svg>
